# xmcd CD database file generated by Grip 3.2.0
# 
# Track frame offsets:
#       187
#       23040
#       38772
#       56385
#       71305
#       83127
#       105367
#       123410
#       146302
#       171797
#       193017
#       219220
#       224387
#       240350
#       257107
#       270305
#       295177
# 
# Disc length: 4291 seconds
# 
# Revision: 5
# Processed by: cddbd v1.5.1PL2 Copyright (c) Steve Scherf et al.
# Submitted via: Grip 3.2.0
# 
DISCID=e210c111
DTITLE=菅野よう子 - Blue
DYEAR=1999
DGENRE=Soundtrack
TTITLE0=BLUE
TTITLE1=WORDS THAT WE COULDN'T SAY
TTITLE2=AUTUMN IN GANYMEDE
TTITLE3=MUSHROOM HUNTING
TTITLE4=GO GO CACTUS MAN
TTITLE5=CHICKEN BONE
TTITLE6=THE REAL MAN
TTITLE7=N.Y. RUSH
TTITLE8=ADIEU
TTITLE9=CALL ME CALL ME
TTITLE10=AVE MARIA
TTITLE11=STELLA BY MOOR
TTITLE12=FLYING TEAPOT
TTITLE13=WO QUI NON COIN
TTITLE14=ROAD TO THE WEST
TTITLE15=FAREWELL BLUES
TTITLE16=THE REAL FOLK BLUES
EXTD=
EXTT0=
EXTT1=
EXTT2=
EXTT3=
EXTT4=
EXTT5=
EXTT6=
EXTT7=
EXTT8=
EXTT9=
EXTT10=
EXTT11=
EXTT12=
EXTT13=
EXTT14=
EXTT15=
EXTT16=
PLAYORDER=
